<?xml version="1.0" encoding="utf-8"?>
<!-- Generator: Adobe Illustrator 24.1.1, SVG Export Plug-In . SVG Version: 6.00 Build 0)  -->
<svg version="1.1" id="Layer_1" xmlns="http://www.w3.org/2000/svg" xmlns:xlink="http://www.w3.org/1999/xlink" x="0px" y="0px"
	 viewBox="0 0 512 512" style="enable-background:new 0 0 512 512;" xml:space="preserve">
<g>
	<path d="M432.4,179.2L256,0L79.6,179.2c-5.7,5.7-8.5,11.4-8.5,19.9c0,8.5,2.8,14.2,8.5,19.9c5.7,5.7,11.4,8.5,19.9,8.5h312.9
		c8.5,0,14.2-2.8,19.9-8.5c5.7-5.7,8.5-14.2,8.5-19.9S438,184.9,432.4,179.2z M79.6,332.8L256,512l176.4-179.2
		c5.7-5.7,8.5-14.2,8.5-19.9c0-5.7-2.8-14.2-8.5-19.9c-5.7-5.7-11.4-8.5-19.9-8.5H99.6c-8.5,0-14.2,2.8-19.9,8.5
		c-5.7,5.7-8.5,14.2-8.5,19.9C71.1,318.6,74,327.1,79.6,332.8z"/>
</g>
</svg>
